<?xml version="1.0" encoding="UTF-8" standalone="no"?>
<svg
   class="svg-icon svg-icon-n-logo"
   focusable="false"
   viewBox="225 0 552 1000"
   aria-hidden="true"
   data-uia="n-logo"
   version="1.1"
   id="svg19"
   sodipodi:docname="7bb011e52dc38e59da281567d80c8c34.svg"
   width="552"
   height="1000"
   xmlns:inkscape="http://www.inkscape.org/namespaces/inkscape"
   xmlns:sodipodi="http://sodipodi.sourceforge.net/DTD/sodipodi-0.dtd"
   xmlns="http://www.w3.org/2000/svg"
   xmlns:svg="http://www.w3.org/2000/svg">
  <sodipodi:namedview
     id="namedview21"
     pagecolor="#ffffff"
     bordercolor="#666666"
     borderopacity="1.0"
     inkscape:pageshadow="2"
     inkscape:pageopacity="0.0"
     inkscape:pagecheckerboard="0" />
  <defs
     id="defs9">
    <radialGradient
       id="78a079d0-5455-42fc-9e6d-2b231406b5d3-a"
       r="557.22527"
       gradientTransform="scale(0.74296702,1.3459548)"
       cx="674.32333"
       cy="371.48351"
       fx="674.32333"
       fy="371.48351"
       gradientUnits="userSpaceOnUse">
      <stop
         offset="60%"
         stop-opacity=".3"
         id="stop2" />
      <stop
         offset="90%"
         stop-opacity=".05"
         id="stop4" />
      <stop
         offset="100%"
         stop-opacity="0"
         id="stop6" />
    </radialGradient>
  </defs>
  <path
     d="m 225,0 v 1000 c 60,-8 138,-14 198,-17 V 0 H 225"
     fill="#b1060e"
     id="path11" />
  <path
     d="m 579,0 v 983 c 71,3 131,9 198,17 V 0 H 579"
     fill="#b1060e"
     id="path13" />
  <path
     d="M 225,0 V 200 L 423,800 V 557 l 151,426 c 76,3 136,9 203,17 V 800 L 579,200 V 440 L 423,0 H 225"
     fill="url(#78a079d0-5455-42fc-9e6d-2b231406b5d3-a)"
     id="path15"
     style="fill:url(#78a079d0-5455-42fc-9e6d-2b231406b5d3-a)" />
  <path
     d="m 225,0 349,983 c 76,3 136,9 203,17 L 423,0 H 225"
     fill="#e50914"
     id="path17" />
</svg>
